<svg width="1920" height="405" viewBox="0 0 1920 405" fill="none" xmlns="http://www.w3.org/2000/svg">
<path d="M1660.36 251.171C1986.49 95.2613 2157.54 400.501 2043.19 20.3672L2004.09 -752.338L27.9855 -652.344L-32.5179 276.586C219.725 403.641 424.085 98.8858 774.892 185.146C1104.04 266.08 1270.77 437.416 1660.36 251.171Z" fill="#CCF6FE"/>
<path d="M1638 253.859C1971.59 114.63 2127 428.125 2032 42.6971L2032 -730.997L53.3732 -730.997L-53.9981 193.689C191.502 333.329 411.001 39.2912 757.001 143.169C1081.64 240.635 1239.5 420.178 1638 253.859Z" fill="#A270FF"/>
<path d="M1982.37 255.974C2334.22 173.098 2436.34 507.765 2405.56 111.997L2531.93 -651.308L579.866 -974.464L322.913 -79.7303C542.311 98.1301 806.886 -156.11 1131.27 2.88303C1435.64 152.062 1562.05 354.975 1982.37 255.974Z" fill="#437FEC" fill-opacity="0.33"/>
</svg>
