<svg width="20" height="20" viewBox="0 0 20 20" fill="none" xmlns="http://www.w3.org/2000/svg">
<path d="M17.1872 1.47368H12.9091V1.43158C12.9091 0.631579 12.2674 0 11.4545 0H8.54545C7.73262 0 7.09091 0.631579 7.09091 1.43158V1.47368H2.81283C2.36364 1.47368 2 1.83158 2 2.27368V3.07368C2 3.51579 2.36364 3.87368 2.81283 3.87368H17.1872C17.6364 3.87368 18 3.51579 18 3.07368V2.27368C18 1.83158 17.6364 1.47368 17.1872 1.47368Z" fill="#7D90B2"/>
<path d="M16.1182 4.96851H3.88293C3.64763 4.96851 3.47651 5.15798 3.4979 5.38956L4.09683 17.579C4.161 18.9264 5.29469 20.0001 6.66367 20.0001H13.3161C14.6851 20.0001 15.8188 18.9475 15.8829 17.579L16.4819 5.38956C16.5246 5.17903 16.3321 4.96851 16.1182 4.96851ZM8.67437 16.7369C8.67437 17.1159 8.3749 17.4106 7.98988 17.4106C7.60485 17.4106 7.30539 17.1159 7.30539 16.7369V8.25272C7.30539 7.87377 7.60485 7.57903 7.98988 7.57903C8.3749 7.57903 8.67437 7.87377 8.67437 8.25272V16.7369ZM12.6958 16.7369C12.6958 17.1159 12.3963 17.4106 12.0113 17.4106C11.6262 17.4106 11.3268 17.1159 11.3268 16.7369V8.25272C11.3268 7.87377 11.6262 7.57903 12.0113 7.57903C12.3963 7.57903 12.6958 7.87377 12.6958 8.25272V16.7369Z" fill="#7D90B2"/>
</svg>
